<?xml version="1.0" encoding="UTF-8" standalone="no"?>
<svg
   version="1.1"
   viewBox="0 0 70 70"
   id="svg5"
   width="70"
   height="70"
   sodipodi:docname="favicon.svg"
   inkscape:version="1.3.2 (091e20e, 2023-11-25, custom)"
   xmlns:inkscape="http://www.inkscape.org/namespaces/inkscape"
   xmlns:sodipodi="http://sodipodi.sourceforge.net/DTD/sodipodi-0.dtd"
   xmlns="http://www.w3.org/2000/svg"
   xmlns:svg="http://www.w3.org/2000/svg">
  <sodipodi:namedview
     id="namedview1"
     pagecolor="#ffffff"
     bordercolor="#000000"
     borderopacity="0.25"
     inkscape:showpageshadow="2"
     inkscape:pageopacity="0.0"
     inkscape:pagecheckerboard="0"
     inkscape:deskcolor="#d1d1d1"
     inkscape:zoom="7.1449176"
     inkscape:cx="44.647121"
     inkscape:cy="26.31241"
     inkscape:window-width="2560"
     inkscape:window-height="1370"
     inkscape:window-x="-7"
     inkscape:window-y="-6"
     inkscape:window-maximized="1"
     inkscape:current-layer="svg5" />
  <defs
     id="defs1">
    <style
       id="style1">
      .cls-1 {
        fill: #9dc41f;
      }

      .cls-2 {
        fill: #00102b;
      }
    </style>
  </defs>
  <!-- Generator: Adobe Illustrator 28.6.0, SVG Export Plug-In . SVG Version: 1.2.0 Build 709)  -->
  <g
     id="g5"
     transform="matrix(0.17886956,0,0,0.17886954,-104.1784,-51.080966)">
    <g
       id="Layer_1">
      <path
         class="cls-1"
         d="M 815.3,332.7 C 811.4,315.7 796.2,303 778.1,303 760,303 744.8,315.7 740.9,332.7 666,349.8 612.6,416.1 612.6,494 c 0,77.9 74.2,165.5 165.5,165.5 91.3,0 165.5,-74.3 165.5,-165.5 0,-91.2 -53.4,-144.2 -128.3,-161.3 z m -37.2,301.4 c -77.2,0 -140,-62.8 -140,-140.1 0,-77.3 43.9,-120.4 105.8,-135.8 6.3,12.6 19.2,21.2 34.2,21.2 15,0 27.9,-8.7 34.2,-21.2 62,15.4 105.9,70.9 105.9,135.8 0,64.9 -62.8,140.1 -140,140.1 v 0 z"
         id="path1" />
      <path
         class="cls-1"
         d="m 778.1,455.8 c -21.1,0 -38.2,17.1 -38.2,38.2 0,21.1 17.1,38.2 38.2,38.2 21.1,0 38.2,-17.1 38.2,-38.2 0,-21.1 -17.1,-38.2 -38.2,-38.2 z m 0,50.9 c -7,0 -12.7,-5.7 -12.7,-12.7 0,-7 5.7,-12.7 12.7,-12.7 7,0 12.7,5.7 12.7,12.7 0,7 -5.7,12.7 -12.7,12.7 z"
         id="path2" />
    </g>
  </g>
</svg>
