<?xml version="1.0" encoding="UTF-8" standalone="no"?>
<svg
   version="1.1"
   viewBox="0 0 215.53782 75.00006"
   id="svg5"
   width="215.53783"
   height="75"
   xmlns="http://www.w3.org/2000/svg"
   xmlns:svg="http://www.w3.org/2000/svg">
  <defs
     id="defs1">
    <style
       id="style1">
      .cls-1 {
        fill: #9dc41f;
      }

      .cls-2 {
        fill: #00102b;
      }
    </style>
  </defs>
  <!-- Generator: Adobe Illustrator 28.6.0, SVG Export Plug-In . SVG Version: 1.2.0 Build 709)  -->
  <g
     id="g5"
     transform="matrix(0.17886956,0,0,0.17886954,-46.506086,-42.964464)">
    <g
       id="Layer_1">
      <path
         class="cls-1"
         d="M 815.3,332.7 C 811.4,315.7 796.2,303 778.1,303 760,303 744.8,315.7 740.9,332.7 666,349.8 612.6,416.1 612.6,494 c 0,77.9 74.2,165.5 165.5,165.5 91.3,0 165.5,-74.3 165.5,-165.5 0,-91.2 -53.4,-144.2 -128.3,-161.3 z m -37.2,301.4 c -77.2,0 -140,-62.8 -140,-140.1 0,-77.3 43.9,-120.4 105.8,-135.8 6.3,12.6 19.2,21.2 34.2,21.2 15,0 27.9,-8.7 34.2,-21.2 62,15.4 105.9,70.9 105.9,135.8 0,64.9 -62.8,140.1 -140,140.1 v 0 z"
         id="path1" />
      <path
         class="cls-1"
         d="m 778.1,455.8 c -21.1,0 -38.2,17.1 -38.2,38.2 0,21.1 17.1,38.2 38.2,38.2 21.1,0 38.2,-17.1 38.2,-38.2 0,-21.1 -17.1,-38.2 -38.2,-38.2 z m 0,50.9 c -7,0 -12.7,-5.7 -12.7,-12.7 0,-7 5.7,-12.7 12.7,-12.7 7,0 12.7,5.7 12.7,12.7 0,7 -5.7,12.7 -12.7,12.7 z"
         id="path2" />
      <path
         class="cls-2"
         d="m 509.6,434.9 c 34.1,-17.4 51.5,-46.7 51.5,-83.2 0,-60.5 -40.7,-111.4 -132.3,-111.4 H 260 v 410.2 h 184.4 c 97,0 144.3,-50.3 144.3,-117.4 0,-67.1 -27.5,-82.6 -79,-98.2 z m -156.9,-115 h 69.4 c 31.7,0 47.9,17.4 47.9,41.3 0,23.9 -16.2,42.5 -47.9,42.5 h -69.4 z m 86.8,250.9 h -86.8 v -88.6 h 86.2 c 36.5,0 56.9,18.6 56.9,45.5 0,26.9 -20.4,43.1 -56.3,43.1 z"
         id="path3" />
      <path
         class="cls-2"
         d="m 1052.5,240.2 v 134.1 c 12,-15.6 44.9,-36.5 88,-36.5 71.8,0 118.5,49.7 118.5,124 v 188.6 h -82.6 V 476.1 c 0,-36.5 -21,-61.7 -56.3,-61.7 -35.3,0 -67.6,25.8 -67.6,68.3 V 650.4 H 969.3 V 240.2 Z"
         id="path4" />
      <path
         class="cls-2"
         d="m 1376.4,650.5 h -83.8 V 343.3 h 83.2 v 41.9 c 20.4,-28.1 50.9,-46.1 89.2,-46.1 v 83.8 c -61.1,0 -88.6,34.1 -88.6,87.4 v 140.1 0 z"
         id="path5" />
    </g>
  </g>
</svg>
